<svg xmlns="http://www.w3.org/2000/svg" viewBox="0 0 512 512">
  <defs>
    <linearGradient id="grad1" x1="0%" y1="0%" x2="100%" y2="100%">
      <stop offset="0%" style="stop-color:#10b981;stop-opacity:1" />
      <stop offset="100%" style="stop-color:#059669;stop-opacity:1" />
    </linearGradient>
    <filter id="glow" x="-20%" y="-20%" width="140%" height="140%">
      <feGaussianBlur stdDeviation="10" result="blur" />
      <feComposite in="SourceGraphic" in2="blur" operator="over" />
    </filter>
  </defs>
  
  <!-- Background Circle -->
  <circle cx="256" cy="256" r="256" fill="#0f172a" />
  
  <!-- Radar Rings (Fading Out) -->
  <circle cx="256" cy="220" r="160" fill="none" stroke="#10b981" stroke-width="4" opacity="0.2" />
  <circle cx="256" cy="220" r="120" fill="none" stroke="#10b981" stroke-width="6" opacity="0.4" />
  
  <!-- Main Pin Shape -->
  <path d="M256 64C167.6 64 96 135.6 96 224c0 53 21.4 101.4 56 136l104 104 104-104c34.6-34.6 56-83 56-136 0-88.4-71.6-160-160-160z" fill="url(#grad1)" filter="url(#glow)"/>
  
  <!-- House/Roof Cutout (Negative Space) -->
  <path d="M256 140l-60 60h30v70h60v-70h30z" fill="#0f172a" />
  
  <!-- Checkmark / Signal (The Verification) -->
  <path d="M340 120l20-20M172 120l-20-20" stroke="#34d399" stroke-width="8" stroke-linecap="round" opacity="0.6"/>
</svg>